%FSLAX45Y45*%
G04 Gerber Fmt 4.5, Leading zero omitted, Abs format (unit mm)*
G04 Created by KiCad (PCBNEW 4.0.6) date 07/19/17 18:29:10*
%MOMM*%
%LPD*%
G01*
G04 APERTURE LIST*
%ADD10C,0.127000*%
%ADD11C,0.150000*%
%ADD12C,0.200000*%
%ADD13C,0.300000*%
G04 APERTURE END LIST*
D10*
D11*
X17780000Y-13081000D02*
X12827000Y-13081000D01*
X12827000Y-8128000D02*
X17780000Y-8128000D01*
X12827000Y-8128000D02*
X12827000Y-13081000D01*
X12827000Y-10033000D02*
X12827000Y-8128000D01*
X17780000Y-8128000D02*
X17780000Y-13081000D01*
D12*
X14826300Y-8806500D02*
X14866300Y-8846500D01*
X14866300Y-8806500D02*
X14826300Y-8846500D01*
X15296200Y-8819200D02*
X15336200Y-8859200D01*
X15336200Y-8819200D02*
X15296200Y-8859200D01*
X15410500Y-8819200D02*
X15450500Y-8859200D01*
X15450500Y-8819200D02*
X15410500Y-8859200D01*
X15524800Y-9479600D02*
X15564800Y-9519600D01*
X15564800Y-9479600D02*
X15524800Y-9519600D01*
X15753400Y-8984300D02*
X15793400Y-9024300D01*
X15793400Y-8984300D02*
X15753400Y-9024300D01*
X13629000Y-10291000D02*
G75*
G03X13629000Y-10291000I-40000J0D01*
G01*
X13629000Y-10541000D02*
G75*
G03X13629000Y-10541000I-40000J0D01*
G01*
X16677000Y-10287000D02*
G75*
G03X16677000Y-10287000I-40000J0D01*
G01*
X16677000Y-10537000D02*
G75*
G03X16677000Y-10537000I-40000J0D01*
G01*
X14351000Y-11878000D02*
X14351000Y-11998000D01*
X14291000Y-11938000D02*
X14411000Y-11938000D01*
X14605000Y-11878000D02*
X14605000Y-11998000D01*
X14545000Y-11938000D02*
X14665000Y-11938000D01*
X14859000Y-11878000D02*
X14859000Y-11998000D01*
X14799000Y-11938000D02*
X14919000Y-11938000D01*
X15113000Y-11878000D02*
X15113000Y-11998000D01*
X15053000Y-11938000D02*
X15173000Y-11938000D01*
X15367000Y-11878000D02*
X15367000Y-11998000D01*
X15307000Y-11938000D02*
X15427000Y-11938000D01*
X15621000Y-11878000D02*
X15621000Y-11998000D01*
X15561000Y-11938000D02*
X15681000Y-11938000D01*
D13*
X13090928Y-13554214D02*
X13090928Y-13254214D01*
X13162357Y-13254214D01*
X13205214Y-13268500D01*
X13233786Y-13297071D01*
X13248071Y-13325643D01*
X13262357Y-13382786D01*
X13262357Y-13425643D01*
X13248071Y-13482786D01*
X13233786Y-13511357D01*
X13205214Y-13539929D01*
X13162357Y-13554214D01*
X13090928Y-13554214D01*
X13390928Y-13554214D02*
X13390928Y-13354214D01*
X13390928Y-13411357D02*
X13405214Y-13382786D01*
X13419500Y-13368500D01*
X13448071Y-13354214D01*
X13476643Y-13354214D01*
X13576643Y-13554214D02*
X13576643Y-13354214D01*
X13576643Y-13254214D02*
X13562357Y-13268500D01*
X13576643Y-13282786D01*
X13590928Y-13268500D01*
X13576643Y-13254214D01*
X13576643Y-13282786D01*
X13762357Y-13554214D02*
X13733786Y-13539929D01*
X13719500Y-13511357D01*
X13719500Y-13254214D01*
X13919500Y-13554214D02*
X13890928Y-13539929D01*
X13876643Y-13511357D01*
X13876643Y-13254214D01*
X14262357Y-13554214D02*
X14262357Y-13254214D01*
X14362357Y-13468500D01*
X14462357Y-13254214D01*
X14462357Y-13554214D01*
X14733786Y-13554214D02*
X14733786Y-13397071D01*
X14719500Y-13368500D01*
X14690928Y-13354214D01*
X14633786Y-13354214D01*
X14605214Y-13368500D01*
X14733786Y-13539929D02*
X14705214Y-13554214D01*
X14633786Y-13554214D01*
X14605214Y-13539929D01*
X14590928Y-13511357D01*
X14590928Y-13482786D01*
X14605214Y-13454214D01*
X14633786Y-13439929D01*
X14705214Y-13439929D01*
X14733786Y-13425643D01*
X14876643Y-13354214D02*
X14876643Y-13654214D01*
X14876643Y-13368500D02*
X14905214Y-13354214D01*
X14962357Y-13354214D01*
X14990928Y-13368500D01*
X15005214Y-13382786D01*
X15019500Y-13411357D01*
X15019500Y-13497071D01*
X15005214Y-13525643D01*
X14990928Y-13539929D01*
X14962357Y-13554214D01*
X14905214Y-13554214D01*
X14876643Y-13539929D01*
X15148071Y-13525643D02*
X15162357Y-13539929D01*
X15148071Y-13554214D01*
X15133786Y-13539929D01*
X15148071Y-13525643D01*
X15148071Y-13554214D01*
X15148071Y-13368500D02*
X15162357Y-13382786D01*
X15148071Y-13397071D01*
X15133786Y-13382786D01*
X15148071Y-13368500D01*
X15148071Y-13397071D01*
X12779500Y-14028500D02*
X12819500Y-14068500D01*
X12819500Y-14028500D02*
X12779500Y-14068500D01*
X13148071Y-13884214D02*
X13176643Y-13884214D01*
X13205214Y-13898500D01*
X13219500Y-13912786D01*
X13233786Y-13941357D01*
X13248071Y-13998500D01*
X13248071Y-14069929D01*
X13233786Y-14127071D01*
X13219500Y-14155643D01*
X13205214Y-14169929D01*
X13176643Y-14184214D01*
X13148071Y-14184214D01*
X13119500Y-14169929D01*
X13105214Y-14155643D01*
X13090928Y-14127071D01*
X13076643Y-14069929D01*
X13076643Y-13998500D01*
X13090928Y-13941357D01*
X13105214Y-13912786D01*
X13119500Y-13898500D01*
X13148071Y-13884214D01*
X13376643Y-14155643D02*
X13390928Y-14169929D01*
X13376643Y-14184214D01*
X13362357Y-14169929D01*
X13376643Y-14155643D01*
X13376643Y-14184214D01*
X13648071Y-13984214D02*
X13648071Y-14184214D01*
X13576643Y-13869929D02*
X13505214Y-14084214D01*
X13690928Y-14084214D01*
X13862357Y-13884214D02*
X13890928Y-13884214D01*
X13919500Y-13898500D01*
X13933786Y-13912786D01*
X13948071Y-13941357D01*
X13962357Y-13998500D01*
X13962357Y-14069929D01*
X13948071Y-14127071D01*
X13933786Y-14155643D01*
X13919500Y-14169929D01*
X13890928Y-14184214D01*
X13862357Y-14184214D01*
X13833786Y-14169929D01*
X13819500Y-14155643D01*
X13805214Y-14127071D01*
X13790928Y-14069929D01*
X13790928Y-13998500D01*
X13805214Y-13941357D01*
X13819500Y-13912786D01*
X13833786Y-13898500D01*
X13862357Y-13884214D01*
X14090928Y-14184214D02*
X14090928Y-13984214D01*
X14090928Y-14012786D02*
X14105214Y-13998500D01*
X14133786Y-13984214D01*
X14176643Y-13984214D01*
X14205214Y-13998500D01*
X14219500Y-14027071D01*
X14219500Y-14184214D01*
X14219500Y-14027071D02*
X14233786Y-13998500D01*
X14262357Y-13984214D01*
X14305214Y-13984214D01*
X14333786Y-13998500D01*
X14348071Y-14027071D01*
X14348071Y-14184214D01*
X14490928Y-14184214D02*
X14490928Y-13984214D01*
X14490928Y-14012786D02*
X14505214Y-13998500D01*
X14533786Y-13984214D01*
X14576643Y-13984214D01*
X14605214Y-13998500D01*
X14619500Y-14027071D01*
X14619500Y-14184214D01*
X14619500Y-14027071D02*
X14633786Y-13998500D01*
X14662357Y-13984214D01*
X14705214Y-13984214D01*
X14733786Y-13998500D01*
X14748071Y-14027071D01*
X14748071Y-14184214D01*
X15333786Y-13869929D02*
X15076643Y-14255643D01*
X15719500Y-13884214D02*
X15748071Y-13884214D01*
X15776643Y-13898500D01*
X15790928Y-13912786D01*
X15805214Y-13941357D01*
X15819500Y-13998500D01*
X15819500Y-14069929D01*
X15805214Y-14127071D01*
X15790928Y-14155643D01*
X15776643Y-14169929D01*
X15748071Y-14184214D01*
X15719500Y-14184214D01*
X15690928Y-14169929D01*
X15676643Y-14155643D01*
X15662357Y-14127071D01*
X15648071Y-14069929D01*
X15648071Y-13998500D01*
X15662357Y-13941357D01*
X15676643Y-13912786D01*
X15690928Y-13898500D01*
X15719500Y-13884214D01*
X15948071Y-14155643D02*
X15962357Y-14169929D01*
X15948071Y-14184214D01*
X15933786Y-14169929D01*
X15948071Y-14155643D01*
X15948071Y-14184214D01*
X16148071Y-13884214D02*
X16176643Y-13884214D01*
X16205214Y-13898500D01*
X16219500Y-13912786D01*
X16233785Y-13941357D01*
X16248071Y-13998500D01*
X16248071Y-14069929D01*
X16233785Y-14127071D01*
X16219500Y-14155643D01*
X16205214Y-14169929D01*
X16176643Y-14184214D01*
X16148071Y-14184214D01*
X16119500Y-14169929D01*
X16105214Y-14155643D01*
X16090928Y-14127071D01*
X16076643Y-14069929D01*
X16076643Y-13998500D01*
X16090928Y-13941357D01*
X16105214Y-13912786D01*
X16119500Y-13898500D01*
X16148071Y-13884214D01*
X16533785Y-14184214D02*
X16362357Y-14184214D01*
X16448071Y-14184214D02*
X16448071Y-13884214D01*
X16419500Y-13927071D01*
X16390928Y-13955643D01*
X16362357Y-13969929D01*
X16790928Y-13884214D02*
X16733785Y-13884214D01*
X16705214Y-13898500D01*
X16690928Y-13912786D01*
X16662357Y-13955643D01*
X16648071Y-14012786D01*
X16648071Y-14127071D01*
X16662357Y-14155643D01*
X16676643Y-14169929D01*
X16705214Y-14184214D01*
X16762357Y-14184214D01*
X16790928Y-14169929D01*
X16805214Y-14155643D01*
X16819500Y-14127071D01*
X16819500Y-14055643D01*
X16805214Y-14027071D01*
X16790928Y-14012786D01*
X16762357Y-13998500D01*
X16705214Y-13998500D01*
X16676643Y-14012786D01*
X16662357Y-14027071D01*
X16648071Y-14055643D01*
X16933786Y-13884214D02*
X16933786Y-13941357D01*
X17048071Y-13884214D02*
X17048071Y-13941357D01*
X17490928Y-14298500D02*
X17476643Y-14284214D01*
X17448071Y-14241357D01*
X17433786Y-14212786D01*
X17419500Y-14169929D01*
X17405214Y-14098500D01*
X17405214Y-14041357D01*
X17419500Y-13969929D01*
X17433786Y-13927071D01*
X17448071Y-13898500D01*
X17476643Y-13855643D01*
X17490928Y-13841357D01*
X17748071Y-13884214D02*
X17605214Y-13884214D01*
X17590928Y-14027071D01*
X17605214Y-14012786D01*
X17633786Y-13998500D01*
X17705214Y-13998500D01*
X17733786Y-14012786D01*
X17748071Y-14027071D01*
X17762357Y-14055643D01*
X17762357Y-14127071D01*
X17748071Y-14155643D01*
X17733786Y-14169929D01*
X17705214Y-14184214D01*
X17633786Y-14184214D01*
X17605214Y-14169929D01*
X17590928Y-14155643D01*
X18119500Y-14184214D02*
X18119500Y-13884214D01*
X18248071Y-14184214D02*
X18248071Y-14027071D01*
X18233786Y-13998500D01*
X18205214Y-13984214D01*
X18162357Y-13984214D01*
X18133786Y-13998500D01*
X18119500Y-14012786D01*
X18433786Y-14184214D02*
X18405214Y-14169929D01*
X18390928Y-14155643D01*
X18376643Y-14127071D01*
X18376643Y-14041357D01*
X18390928Y-14012786D01*
X18405214Y-13998500D01*
X18433786Y-13984214D01*
X18476643Y-13984214D01*
X18505214Y-13998500D01*
X18519500Y-14012786D01*
X18533786Y-14041357D01*
X18533786Y-14127071D01*
X18519500Y-14155643D01*
X18505214Y-14169929D01*
X18476643Y-14184214D01*
X18433786Y-14184214D01*
X18705214Y-14184214D02*
X18676643Y-14169929D01*
X18662357Y-14141357D01*
X18662357Y-13884214D01*
X18933786Y-14169929D02*
X18905214Y-14184214D01*
X18848071Y-14184214D01*
X18819500Y-14169929D01*
X18805214Y-14141357D01*
X18805214Y-14027071D01*
X18819500Y-13998500D01*
X18848071Y-13984214D01*
X18905214Y-13984214D01*
X18933786Y-13998500D01*
X18948071Y-14027071D01*
X18948071Y-14055643D01*
X18805214Y-14084214D01*
X19062357Y-14169929D02*
X19090929Y-14184214D01*
X19148071Y-14184214D01*
X19176643Y-14169929D01*
X19190929Y-14141357D01*
X19190929Y-14127071D01*
X19176643Y-14098500D01*
X19148071Y-14084214D01*
X19105214Y-14084214D01*
X19076643Y-14069929D01*
X19062357Y-14041357D01*
X19062357Y-14027071D01*
X19076643Y-13998500D01*
X19105214Y-13984214D01*
X19148071Y-13984214D01*
X19176643Y-13998500D01*
X19290928Y-14298500D02*
X19305214Y-14284214D01*
X19333786Y-14241357D01*
X19348071Y-14212786D01*
X19362357Y-14169929D01*
X19376643Y-14098500D01*
X19376643Y-14041357D01*
X19362357Y-13969929D01*
X19348071Y-13927071D01*
X19333786Y-13898500D01*
X19305214Y-13855643D01*
X19290928Y-13841357D01*
X12819500Y-14444500D02*
G75*
G03X12819500Y-14444500I-40000J0D01*
G01*
X13148071Y-14280214D02*
X13176643Y-14280214D01*
X13205214Y-14294500D01*
X13219500Y-14308786D01*
X13233786Y-14337357D01*
X13248071Y-14394500D01*
X13248071Y-14465929D01*
X13233786Y-14523071D01*
X13219500Y-14551643D01*
X13205214Y-14565929D01*
X13176643Y-14580214D01*
X13148071Y-14580214D01*
X13119500Y-14565929D01*
X13105214Y-14551643D01*
X13090928Y-14523071D01*
X13076643Y-14465929D01*
X13076643Y-14394500D01*
X13090928Y-14337357D01*
X13105214Y-14308786D01*
X13119500Y-14294500D01*
X13148071Y-14280214D01*
X13376643Y-14551643D02*
X13390928Y-14565929D01*
X13376643Y-14580214D01*
X13362357Y-14565929D01*
X13376643Y-14551643D01*
X13376643Y-14580214D01*
X13562357Y-14408786D02*
X13533786Y-14394500D01*
X13519500Y-14380214D01*
X13505214Y-14351643D01*
X13505214Y-14337357D01*
X13519500Y-14308786D01*
X13533786Y-14294500D01*
X13562357Y-14280214D01*
X13619500Y-14280214D01*
X13648071Y-14294500D01*
X13662357Y-14308786D01*
X13676643Y-14337357D01*
X13676643Y-14351643D01*
X13662357Y-14380214D01*
X13648071Y-14394500D01*
X13619500Y-14408786D01*
X13562357Y-14408786D01*
X13533786Y-14423071D01*
X13519500Y-14437357D01*
X13505214Y-14465929D01*
X13505214Y-14523071D01*
X13519500Y-14551643D01*
X13533786Y-14565929D01*
X13562357Y-14580214D01*
X13619500Y-14580214D01*
X13648071Y-14565929D01*
X13662357Y-14551643D01*
X13676643Y-14523071D01*
X13676643Y-14465929D01*
X13662357Y-14437357D01*
X13648071Y-14423071D01*
X13619500Y-14408786D01*
X13862357Y-14280214D02*
X13890928Y-14280214D01*
X13919500Y-14294500D01*
X13933786Y-14308786D01*
X13948071Y-14337357D01*
X13962357Y-14394500D01*
X13962357Y-14465929D01*
X13948071Y-14523071D01*
X13933786Y-14551643D01*
X13919500Y-14565929D01*
X13890928Y-14580214D01*
X13862357Y-14580214D01*
X13833786Y-14565929D01*
X13819500Y-14551643D01*
X13805214Y-14523071D01*
X13790928Y-14465929D01*
X13790928Y-14394500D01*
X13805214Y-14337357D01*
X13819500Y-14308786D01*
X13833786Y-14294500D01*
X13862357Y-14280214D01*
X14090928Y-14580214D02*
X14090928Y-14380214D01*
X14090928Y-14408786D02*
X14105214Y-14394500D01*
X14133786Y-14380214D01*
X14176643Y-14380214D01*
X14205214Y-14394500D01*
X14219500Y-14423071D01*
X14219500Y-14580214D01*
X14219500Y-14423071D02*
X14233786Y-14394500D01*
X14262357Y-14380214D01*
X14305214Y-14380214D01*
X14333786Y-14394500D01*
X14348071Y-14423071D01*
X14348071Y-14580214D01*
X14490928Y-14580214D02*
X14490928Y-14380214D01*
X14490928Y-14408786D02*
X14505214Y-14394500D01*
X14533786Y-14380214D01*
X14576643Y-14380214D01*
X14605214Y-14394500D01*
X14619500Y-14423071D01*
X14619500Y-14580214D01*
X14619500Y-14423071D02*
X14633786Y-14394500D01*
X14662357Y-14380214D01*
X14705214Y-14380214D01*
X14733786Y-14394500D01*
X14748071Y-14423071D01*
X14748071Y-14580214D01*
X15333786Y-14265929D02*
X15076643Y-14651643D01*
X15719500Y-14280214D02*
X15748071Y-14280214D01*
X15776643Y-14294500D01*
X15790928Y-14308786D01*
X15805214Y-14337357D01*
X15819500Y-14394500D01*
X15819500Y-14465929D01*
X15805214Y-14523071D01*
X15790928Y-14551643D01*
X15776643Y-14565929D01*
X15748071Y-14580214D01*
X15719500Y-14580214D01*
X15690928Y-14565929D01*
X15676643Y-14551643D01*
X15662357Y-14523071D01*
X15648071Y-14465929D01*
X15648071Y-14394500D01*
X15662357Y-14337357D01*
X15676643Y-14308786D01*
X15690928Y-14294500D01*
X15719500Y-14280214D01*
X15948071Y-14551643D02*
X15962357Y-14565929D01*
X15948071Y-14580214D01*
X15933786Y-14565929D01*
X15948071Y-14551643D01*
X15948071Y-14580214D01*
X16148071Y-14280214D02*
X16176643Y-14280214D01*
X16205214Y-14294500D01*
X16219500Y-14308786D01*
X16233785Y-14337357D01*
X16248071Y-14394500D01*
X16248071Y-14465929D01*
X16233785Y-14523071D01*
X16219500Y-14551643D01*
X16205214Y-14565929D01*
X16176643Y-14580214D01*
X16148071Y-14580214D01*
X16119500Y-14565929D01*
X16105214Y-14551643D01*
X16090928Y-14523071D01*
X16076643Y-14465929D01*
X16076643Y-14394500D01*
X16090928Y-14337357D01*
X16105214Y-14308786D01*
X16119500Y-14294500D01*
X16148071Y-14280214D01*
X16348071Y-14280214D02*
X16533785Y-14280214D01*
X16433785Y-14394500D01*
X16476643Y-14394500D01*
X16505214Y-14408786D01*
X16519500Y-14423071D01*
X16533785Y-14451643D01*
X16533785Y-14523071D01*
X16519500Y-14551643D01*
X16505214Y-14565929D01*
X16476643Y-14580214D01*
X16390928Y-14580214D01*
X16362357Y-14565929D01*
X16348071Y-14551643D01*
X16819500Y-14580214D02*
X16648071Y-14580214D01*
X16733785Y-14580214D02*
X16733785Y-14280214D01*
X16705214Y-14323071D01*
X16676643Y-14351643D01*
X16648071Y-14365929D01*
X16933786Y-14280214D02*
X16933786Y-14337357D01*
X17048071Y-14280214D02*
X17048071Y-14337357D01*
X17490928Y-14694500D02*
X17476643Y-14680214D01*
X17448071Y-14637357D01*
X17433786Y-14608786D01*
X17419500Y-14565929D01*
X17405214Y-14494500D01*
X17405214Y-14437357D01*
X17419500Y-14365929D01*
X17433786Y-14323071D01*
X17448071Y-14294500D01*
X17476643Y-14251643D01*
X17490928Y-14237357D01*
X17733786Y-14380214D02*
X17733786Y-14580214D01*
X17662357Y-14265929D02*
X17590928Y-14480214D01*
X17776643Y-14480214D01*
X18119500Y-14580214D02*
X18119500Y-14280214D01*
X18248071Y-14580214D02*
X18248071Y-14423071D01*
X18233786Y-14394500D01*
X18205214Y-14380214D01*
X18162357Y-14380214D01*
X18133786Y-14394500D01*
X18119500Y-14408786D01*
X18433786Y-14580214D02*
X18405214Y-14565929D01*
X18390928Y-14551643D01*
X18376643Y-14523071D01*
X18376643Y-14437357D01*
X18390928Y-14408786D01*
X18405214Y-14394500D01*
X18433786Y-14380214D01*
X18476643Y-14380214D01*
X18505214Y-14394500D01*
X18519500Y-14408786D01*
X18533786Y-14437357D01*
X18533786Y-14523071D01*
X18519500Y-14551643D01*
X18505214Y-14565929D01*
X18476643Y-14580214D01*
X18433786Y-14580214D01*
X18705214Y-14580214D02*
X18676643Y-14565929D01*
X18662357Y-14537357D01*
X18662357Y-14280214D01*
X18933786Y-14565929D02*
X18905214Y-14580214D01*
X18848071Y-14580214D01*
X18819500Y-14565929D01*
X18805214Y-14537357D01*
X18805214Y-14423071D01*
X18819500Y-14394500D01*
X18848071Y-14380214D01*
X18905214Y-14380214D01*
X18933786Y-14394500D01*
X18948071Y-14423071D01*
X18948071Y-14451643D01*
X18805214Y-14480214D01*
X19062357Y-14565929D02*
X19090929Y-14580214D01*
X19148071Y-14580214D01*
X19176643Y-14565929D01*
X19190929Y-14537357D01*
X19190929Y-14523071D01*
X19176643Y-14494500D01*
X19148071Y-14480214D01*
X19105214Y-14480214D01*
X19076643Y-14465929D01*
X19062357Y-14437357D01*
X19062357Y-14423071D01*
X19076643Y-14394500D01*
X19105214Y-14380214D01*
X19148071Y-14380214D01*
X19176643Y-14394500D01*
X19290928Y-14694500D02*
X19305214Y-14680214D01*
X19333786Y-14637357D01*
X19348071Y-14608786D01*
X19362357Y-14565929D01*
X19376643Y-14494500D01*
X19376643Y-14437357D01*
X19362357Y-14365929D01*
X19348071Y-14323071D01*
X19333786Y-14294500D01*
X19305214Y-14251643D01*
X19290928Y-14237357D01*
X12759500Y-14780500D02*
X12759500Y-14900500D01*
X12699500Y-14840500D02*
X12819500Y-14840500D01*
X13248071Y-14976214D02*
X13076643Y-14976214D01*
X13162357Y-14976214D02*
X13162357Y-14676214D01*
X13133786Y-14719071D01*
X13105214Y-14747643D01*
X13076643Y-14761929D01*
X13376643Y-14947643D02*
X13390928Y-14961929D01*
X13376643Y-14976214D01*
X13362357Y-14961929D01*
X13376643Y-14947643D01*
X13376643Y-14976214D01*
X13505214Y-14704786D02*
X13519500Y-14690500D01*
X13548071Y-14676214D01*
X13619500Y-14676214D01*
X13648071Y-14690500D01*
X13662357Y-14704786D01*
X13676643Y-14733357D01*
X13676643Y-14761929D01*
X13662357Y-14804786D01*
X13490928Y-14976214D01*
X13676643Y-14976214D01*
X13862357Y-14676214D02*
X13890928Y-14676214D01*
X13919500Y-14690500D01*
X13933786Y-14704786D01*
X13948071Y-14733357D01*
X13962357Y-14790500D01*
X13962357Y-14861929D01*
X13948071Y-14919071D01*
X13933786Y-14947643D01*
X13919500Y-14961929D01*
X13890928Y-14976214D01*
X13862357Y-14976214D01*
X13833786Y-14961929D01*
X13819500Y-14947643D01*
X13805214Y-14919071D01*
X13790928Y-14861929D01*
X13790928Y-14790500D01*
X13805214Y-14733357D01*
X13819500Y-14704786D01*
X13833786Y-14690500D01*
X13862357Y-14676214D01*
X14090928Y-14976214D02*
X14090928Y-14776214D01*
X14090928Y-14804786D02*
X14105214Y-14790500D01*
X14133786Y-14776214D01*
X14176643Y-14776214D01*
X14205214Y-14790500D01*
X14219500Y-14819071D01*
X14219500Y-14976214D01*
X14219500Y-14819071D02*
X14233786Y-14790500D01*
X14262357Y-14776214D01*
X14305214Y-14776214D01*
X14333786Y-14790500D01*
X14348071Y-14819071D01*
X14348071Y-14976214D01*
X14490928Y-14976214D02*
X14490928Y-14776214D01*
X14490928Y-14804786D02*
X14505214Y-14790500D01*
X14533786Y-14776214D01*
X14576643Y-14776214D01*
X14605214Y-14790500D01*
X14619500Y-14819071D01*
X14619500Y-14976214D01*
X14619500Y-14819071D02*
X14633786Y-14790500D01*
X14662357Y-14776214D01*
X14705214Y-14776214D01*
X14733786Y-14790500D01*
X14748071Y-14819071D01*
X14748071Y-14976214D01*
X15333786Y-14661929D02*
X15076643Y-15047643D01*
X15719500Y-14676214D02*
X15748071Y-14676214D01*
X15776643Y-14690500D01*
X15790928Y-14704786D01*
X15805214Y-14733357D01*
X15819500Y-14790500D01*
X15819500Y-14861929D01*
X15805214Y-14919071D01*
X15790928Y-14947643D01*
X15776643Y-14961929D01*
X15748071Y-14976214D01*
X15719500Y-14976214D01*
X15690928Y-14961929D01*
X15676643Y-14947643D01*
X15662357Y-14919071D01*
X15648071Y-14861929D01*
X15648071Y-14790500D01*
X15662357Y-14733357D01*
X15676643Y-14704786D01*
X15690928Y-14690500D01*
X15719500Y-14676214D01*
X15948071Y-14947643D02*
X15962357Y-14961929D01*
X15948071Y-14976214D01*
X15933786Y-14961929D01*
X15948071Y-14947643D01*
X15948071Y-14976214D01*
X16148071Y-14676214D02*
X16176643Y-14676214D01*
X16205214Y-14690500D01*
X16219500Y-14704786D01*
X16233785Y-14733357D01*
X16248071Y-14790500D01*
X16248071Y-14861929D01*
X16233785Y-14919071D01*
X16219500Y-14947643D01*
X16205214Y-14961929D01*
X16176643Y-14976214D01*
X16148071Y-14976214D01*
X16119500Y-14961929D01*
X16105214Y-14947643D01*
X16090928Y-14919071D01*
X16076643Y-14861929D01*
X16076643Y-14790500D01*
X16090928Y-14733357D01*
X16105214Y-14704786D01*
X16119500Y-14690500D01*
X16148071Y-14676214D01*
X16505214Y-14776214D02*
X16505214Y-14976214D01*
X16433785Y-14661929D02*
X16362357Y-14876214D01*
X16548071Y-14876214D01*
X16633785Y-14676214D02*
X16833786Y-14676214D01*
X16705214Y-14976214D01*
X16933786Y-14676214D02*
X16933786Y-14733357D01*
X17048071Y-14676214D02*
X17048071Y-14733357D01*
X17490928Y-15090500D02*
X17476643Y-15076214D01*
X17448071Y-15033357D01*
X17433786Y-15004786D01*
X17419500Y-14961929D01*
X17405214Y-14890500D01*
X17405214Y-14833357D01*
X17419500Y-14761929D01*
X17433786Y-14719071D01*
X17448071Y-14690500D01*
X17476643Y-14647643D01*
X17490928Y-14633357D01*
X17733786Y-14676214D02*
X17676643Y-14676214D01*
X17648071Y-14690500D01*
X17633786Y-14704786D01*
X17605214Y-14747643D01*
X17590928Y-14804786D01*
X17590928Y-14919071D01*
X17605214Y-14947643D01*
X17619500Y-14961929D01*
X17648071Y-14976214D01*
X17705214Y-14976214D01*
X17733786Y-14961929D01*
X17748071Y-14947643D01*
X17762357Y-14919071D01*
X17762357Y-14847643D01*
X17748071Y-14819071D01*
X17733786Y-14804786D01*
X17705214Y-14790500D01*
X17648071Y-14790500D01*
X17619500Y-14804786D01*
X17605214Y-14819071D01*
X17590928Y-14847643D01*
X18119500Y-14976214D02*
X18119500Y-14676214D01*
X18248071Y-14976214D02*
X18248071Y-14819071D01*
X18233786Y-14790500D01*
X18205214Y-14776214D01*
X18162357Y-14776214D01*
X18133786Y-14790500D01*
X18119500Y-14804786D01*
X18433786Y-14976214D02*
X18405214Y-14961929D01*
X18390928Y-14947643D01*
X18376643Y-14919071D01*
X18376643Y-14833357D01*
X18390928Y-14804786D01*
X18405214Y-14790500D01*
X18433786Y-14776214D01*
X18476643Y-14776214D01*
X18505214Y-14790500D01*
X18519500Y-14804786D01*
X18533786Y-14833357D01*
X18533786Y-14919071D01*
X18519500Y-14947643D01*
X18505214Y-14961929D01*
X18476643Y-14976214D01*
X18433786Y-14976214D01*
X18705214Y-14976214D02*
X18676643Y-14961929D01*
X18662357Y-14933357D01*
X18662357Y-14676214D01*
X18933786Y-14961929D02*
X18905214Y-14976214D01*
X18848071Y-14976214D01*
X18819500Y-14961929D01*
X18805214Y-14933357D01*
X18805214Y-14819071D01*
X18819500Y-14790500D01*
X18848071Y-14776214D01*
X18905214Y-14776214D01*
X18933786Y-14790500D01*
X18948071Y-14819071D01*
X18948071Y-14847643D01*
X18805214Y-14876214D01*
X19062357Y-14961929D02*
X19090929Y-14976214D01*
X19148071Y-14976214D01*
X19176643Y-14961929D01*
X19190929Y-14933357D01*
X19190929Y-14919071D01*
X19176643Y-14890500D01*
X19148071Y-14876214D01*
X19105214Y-14876214D01*
X19076643Y-14861929D01*
X19062357Y-14833357D01*
X19062357Y-14819071D01*
X19076643Y-14790500D01*
X19105214Y-14776214D01*
X19148071Y-14776214D01*
X19176643Y-14790500D01*
X19290928Y-15090500D02*
X19305214Y-15076214D01*
X19333786Y-15033357D01*
X19348071Y-15004786D01*
X19362357Y-14961929D01*
X19376643Y-14890500D01*
X19376643Y-14833357D01*
X19362357Y-14761929D01*
X19348071Y-14719071D01*
X19333786Y-14690500D01*
X19305214Y-14647643D01*
X19290928Y-14633357D01*
M02*
