%FSLAX45Y45*%
G04 Gerber Fmt 4.5, Leading zero omitted, Abs format (unit mm)*
G04 Created by KiCad (PCBNEW 4.0.6) date 07/19/17 18:29:10*
%MOMM*%
%LPD*%
G01*
G04 APERTURE LIST*
%ADD10C,0.127000*%
%ADD11C,0.150000*%
%ADD12C,0.200000*%
%ADD13C,0.300000*%
G04 APERTURE END LIST*
D10*
D11*
X17780000Y-13081000D02*
X12827000Y-13081000D01*
X12827000Y-8128000D02*
X17780000Y-8128000D01*
X12827000Y-8128000D02*
X12827000Y-13081000D01*
X12827000Y-10033000D02*
X12827000Y-8128000D01*
X17780000Y-8128000D02*
X17780000Y-13081000D01*
D12*
X14431600Y-8799000D02*
X14521600Y-8889000D01*
X14521600Y-8799000D02*
X14431600Y-8889000D01*
X15526600Y-8799000D02*
X15616600Y-8889000D01*
X15616600Y-8799000D02*
X15526600Y-8889000D01*
D13*
X13090928Y-13554214D02*
X13090928Y-13254214D01*
X13162357Y-13254214D01*
X13205214Y-13268500D01*
X13233786Y-13297071D01*
X13248071Y-13325643D01*
X13262357Y-13382786D01*
X13262357Y-13425643D01*
X13248071Y-13482786D01*
X13233786Y-13511357D01*
X13205214Y-13539929D01*
X13162357Y-13554214D01*
X13090928Y-13554214D01*
X13390928Y-13554214D02*
X13390928Y-13354214D01*
X13390928Y-13411357D02*
X13405214Y-13382786D01*
X13419500Y-13368500D01*
X13448071Y-13354214D01*
X13476643Y-13354214D01*
X13576643Y-13554214D02*
X13576643Y-13354214D01*
X13576643Y-13254214D02*
X13562357Y-13268500D01*
X13576643Y-13282786D01*
X13590928Y-13268500D01*
X13576643Y-13254214D01*
X13576643Y-13282786D01*
X13762357Y-13554214D02*
X13733786Y-13539929D01*
X13719500Y-13511357D01*
X13719500Y-13254214D01*
X13919500Y-13554214D02*
X13890928Y-13539929D01*
X13876643Y-13511357D01*
X13876643Y-13254214D01*
X14262357Y-13554214D02*
X14262357Y-13254214D01*
X14362357Y-13468500D01*
X14462357Y-13254214D01*
X14462357Y-13554214D01*
X14733786Y-13554214D02*
X14733786Y-13397071D01*
X14719500Y-13368500D01*
X14690928Y-13354214D01*
X14633786Y-13354214D01*
X14605214Y-13368500D01*
X14733786Y-13539929D02*
X14705214Y-13554214D01*
X14633786Y-13554214D01*
X14605214Y-13539929D01*
X14590928Y-13511357D01*
X14590928Y-13482786D01*
X14605214Y-13454214D01*
X14633786Y-13439929D01*
X14705214Y-13439929D01*
X14733786Y-13425643D01*
X14876643Y-13354214D02*
X14876643Y-13654214D01*
X14876643Y-13368500D02*
X14905214Y-13354214D01*
X14962357Y-13354214D01*
X14990928Y-13368500D01*
X15005214Y-13382786D01*
X15019500Y-13411357D01*
X15019500Y-13497071D01*
X15005214Y-13525643D01*
X14990928Y-13539929D01*
X14962357Y-13554214D01*
X14905214Y-13554214D01*
X14876643Y-13539929D01*
X15148071Y-13525643D02*
X15162357Y-13539929D01*
X15148071Y-13554214D01*
X15133786Y-13539929D01*
X15148071Y-13525643D01*
X15148071Y-13554214D01*
X15148071Y-13368500D02*
X15162357Y-13382786D01*
X15148071Y-13397071D01*
X15133786Y-13382786D01*
X15148071Y-13368500D01*
X15148071Y-13397071D01*
X12729500Y-14003500D02*
X12819500Y-14093500D01*
X12819500Y-14003500D02*
X12729500Y-14093500D01*
X13148071Y-13884214D02*
X13176643Y-13884214D01*
X13205214Y-13898500D01*
X13219500Y-13912786D01*
X13233786Y-13941357D01*
X13248071Y-13998500D01*
X13248071Y-14069929D01*
X13233786Y-14127071D01*
X13219500Y-14155643D01*
X13205214Y-14169929D01*
X13176643Y-14184214D01*
X13148071Y-14184214D01*
X13119500Y-14169929D01*
X13105214Y-14155643D01*
X13090928Y-14127071D01*
X13076643Y-14069929D01*
X13076643Y-13998500D01*
X13090928Y-13941357D01*
X13105214Y-13912786D01*
X13119500Y-13898500D01*
X13148071Y-13884214D01*
X13376643Y-14155643D02*
X13390928Y-14169929D01*
X13376643Y-14184214D01*
X13362357Y-14169929D01*
X13376643Y-14155643D01*
X13376643Y-14184214D01*
X13533786Y-14184214D02*
X13590928Y-14184214D01*
X13619500Y-14169929D01*
X13633786Y-14155643D01*
X13662357Y-14112786D01*
X13676643Y-14055643D01*
X13676643Y-13941357D01*
X13662357Y-13912786D01*
X13648071Y-13898500D01*
X13619500Y-13884214D01*
X13562357Y-13884214D01*
X13533786Y-13898500D01*
X13519500Y-13912786D01*
X13505214Y-13941357D01*
X13505214Y-14012786D01*
X13519500Y-14041357D01*
X13533786Y-14055643D01*
X13562357Y-14069929D01*
X13619500Y-14069929D01*
X13648071Y-14055643D01*
X13662357Y-14041357D01*
X13676643Y-14012786D01*
X13862357Y-13884214D02*
X13890928Y-13884214D01*
X13919500Y-13898500D01*
X13933786Y-13912786D01*
X13948071Y-13941357D01*
X13962357Y-13998500D01*
X13962357Y-14069929D01*
X13948071Y-14127071D01*
X13933786Y-14155643D01*
X13919500Y-14169929D01*
X13890928Y-14184214D01*
X13862357Y-14184214D01*
X13833786Y-14169929D01*
X13819500Y-14155643D01*
X13805214Y-14127071D01*
X13790928Y-14069929D01*
X13790928Y-13998500D01*
X13805214Y-13941357D01*
X13819500Y-13912786D01*
X13833786Y-13898500D01*
X13862357Y-13884214D01*
X14090928Y-14184214D02*
X14090928Y-13984214D01*
X14090928Y-14012786D02*
X14105214Y-13998500D01*
X14133786Y-13984214D01*
X14176643Y-13984214D01*
X14205214Y-13998500D01*
X14219500Y-14027071D01*
X14219500Y-14184214D01*
X14219500Y-14027071D02*
X14233786Y-13998500D01*
X14262357Y-13984214D01*
X14305214Y-13984214D01*
X14333786Y-13998500D01*
X14348071Y-14027071D01*
X14348071Y-14184214D01*
X14490928Y-14184214D02*
X14490928Y-13984214D01*
X14490928Y-14012786D02*
X14505214Y-13998500D01*
X14533786Y-13984214D01*
X14576643Y-13984214D01*
X14605214Y-13998500D01*
X14619500Y-14027071D01*
X14619500Y-14184214D01*
X14619500Y-14027071D02*
X14633786Y-13998500D01*
X14662357Y-13984214D01*
X14705214Y-13984214D01*
X14733786Y-13998500D01*
X14748071Y-14027071D01*
X14748071Y-14184214D01*
X15333786Y-13869929D02*
X15076643Y-14255643D01*
X15719500Y-13884214D02*
X15748071Y-13884214D01*
X15776643Y-13898500D01*
X15790928Y-13912786D01*
X15805214Y-13941357D01*
X15819500Y-13998500D01*
X15819500Y-14069929D01*
X15805214Y-14127071D01*
X15790928Y-14155643D01*
X15776643Y-14169929D01*
X15748071Y-14184214D01*
X15719500Y-14184214D01*
X15690928Y-14169929D01*
X15676643Y-14155643D01*
X15662357Y-14127071D01*
X15648071Y-14069929D01*
X15648071Y-13998500D01*
X15662357Y-13941357D01*
X15676643Y-13912786D01*
X15690928Y-13898500D01*
X15719500Y-13884214D01*
X15948071Y-14155643D02*
X15962357Y-14169929D01*
X15948071Y-14184214D01*
X15933786Y-14169929D01*
X15948071Y-14155643D01*
X15948071Y-14184214D01*
X16148071Y-13884214D02*
X16176643Y-13884214D01*
X16205214Y-13898500D01*
X16219500Y-13912786D01*
X16233785Y-13941357D01*
X16248071Y-13998500D01*
X16248071Y-14069929D01*
X16233785Y-14127071D01*
X16219500Y-14155643D01*
X16205214Y-14169929D01*
X16176643Y-14184214D01*
X16148071Y-14184214D01*
X16119500Y-14169929D01*
X16105214Y-14155643D01*
X16090928Y-14127071D01*
X16076643Y-14069929D01*
X16076643Y-13998500D01*
X16090928Y-13941357D01*
X16105214Y-13912786D01*
X16119500Y-13898500D01*
X16148071Y-13884214D01*
X16348071Y-13884214D02*
X16533785Y-13884214D01*
X16433785Y-13998500D01*
X16476643Y-13998500D01*
X16505214Y-14012786D01*
X16519500Y-14027071D01*
X16533785Y-14055643D01*
X16533785Y-14127071D01*
X16519500Y-14155643D01*
X16505214Y-14169929D01*
X16476643Y-14184214D01*
X16390928Y-14184214D01*
X16362357Y-14169929D01*
X16348071Y-14155643D01*
X16805214Y-13884214D02*
X16662357Y-13884214D01*
X16648071Y-14027071D01*
X16662357Y-14012786D01*
X16690928Y-13998500D01*
X16762357Y-13998500D01*
X16790928Y-14012786D01*
X16805214Y-14027071D01*
X16819500Y-14055643D01*
X16819500Y-14127071D01*
X16805214Y-14155643D01*
X16790928Y-14169929D01*
X16762357Y-14184214D01*
X16690928Y-14184214D01*
X16662357Y-14169929D01*
X16648071Y-14155643D01*
X16933786Y-13884214D02*
X16933786Y-13941357D01*
X17048071Y-13884214D02*
X17048071Y-13941357D01*
X17490928Y-14298500D02*
X17476643Y-14284214D01*
X17448071Y-14241357D01*
X17433786Y-14212786D01*
X17419500Y-14169929D01*
X17405214Y-14098500D01*
X17405214Y-14041357D01*
X17419500Y-13969929D01*
X17433786Y-13927071D01*
X17448071Y-13898500D01*
X17476643Y-13855643D01*
X17490928Y-13841357D01*
X17590928Y-13912786D02*
X17605214Y-13898500D01*
X17633786Y-13884214D01*
X17705214Y-13884214D01*
X17733786Y-13898500D01*
X17748071Y-13912786D01*
X17762357Y-13941357D01*
X17762357Y-13969929D01*
X17748071Y-14012786D01*
X17576643Y-14184214D01*
X17762357Y-14184214D01*
X18119500Y-14184214D02*
X18119500Y-13884214D01*
X18248071Y-14184214D02*
X18248071Y-14027071D01*
X18233786Y-13998500D01*
X18205214Y-13984214D01*
X18162357Y-13984214D01*
X18133786Y-13998500D01*
X18119500Y-14012786D01*
X18433786Y-14184214D02*
X18405214Y-14169929D01*
X18390928Y-14155643D01*
X18376643Y-14127071D01*
X18376643Y-14041357D01*
X18390928Y-14012786D01*
X18405214Y-13998500D01*
X18433786Y-13984214D01*
X18476643Y-13984214D01*
X18505214Y-13998500D01*
X18519500Y-14012786D01*
X18533786Y-14041357D01*
X18533786Y-14127071D01*
X18519500Y-14155643D01*
X18505214Y-14169929D01*
X18476643Y-14184214D01*
X18433786Y-14184214D01*
X18705214Y-14184214D02*
X18676643Y-14169929D01*
X18662357Y-14141357D01*
X18662357Y-13884214D01*
X18933786Y-14169929D02*
X18905214Y-14184214D01*
X18848071Y-14184214D01*
X18819500Y-14169929D01*
X18805214Y-14141357D01*
X18805214Y-14027071D01*
X18819500Y-13998500D01*
X18848071Y-13984214D01*
X18905214Y-13984214D01*
X18933786Y-13998500D01*
X18948071Y-14027071D01*
X18948071Y-14055643D01*
X18805214Y-14084214D01*
X19062357Y-14169929D02*
X19090929Y-14184214D01*
X19148071Y-14184214D01*
X19176643Y-14169929D01*
X19190929Y-14141357D01*
X19190929Y-14127071D01*
X19176643Y-14098500D01*
X19148071Y-14084214D01*
X19105214Y-14084214D01*
X19076643Y-14069929D01*
X19062357Y-14041357D01*
X19062357Y-14027071D01*
X19076643Y-13998500D01*
X19105214Y-13984214D01*
X19148071Y-13984214D01*
X19176643Y-13998500D01*
X19290928Y-14298500D02*
X19305214Y-14284214D01*
X19333786Y-14241357D01*
X19348071Y-14212786D01*
X19362357Y-14169929D01*
X19376643Y-14098500D01*
X19376643Y-14041357D01*
X19362357Y-13969929D01*
X19348071Y-13927071D01*
X19333786Y-13898500D01*
X19305214Y-13855643D01*
X19290928Y-13841357D01*
X19833786Y-14298500D02*
X19819500Y-14284214D01*
X19790928Y-14241357D01*
X19776643Y-14212786D01*
X19762357Y-14169929D01*
X19748071Y-14098500D01*
X19748071Y-14041357D01*
X19762357Y-13969929D01*
X19776643Y-13927071D01*
X19790928Y-13898500D01*
X19819500Y-13855643D01*
X19833786Y-13841357D01*
X19948071Y-13984214D02*
X19948071Y-14184214D01*
X19948071Y-14012786D02*
X19962357Y-13998500D01*
X19990928Y-13984214D01*
X20033786Y-13984214D01*
X20062357Y-13998500D01*
X20076643Y-14027071D01*
X20076643Y-14184214D01*
X20262357Y-14184214D02*
X20233786Y-14169929D01*
X20219500Y-14155643D01*
X20205214Y-14127071D01*
X20205214Y-14041357D01*
X20219500Y-14012786D01*
X20233786Y-13998500D01*
X20262357Y-13984214D01*
X20305214Y-13984214D01*
X20333786Y-13998500D01*
X20348071Y-14012786D01*
X20362357Y-14041357D01*
X20362357Y-14127071D01*
X20348071Y-14155643D01*
X20333786Y-14169929D01*
X20305214Y-14184214D01*
X20262357Y-14184214D01*
X20448071Y-13984214D02*
X20562357Y-13984214D01*
X20490929Y-13884214D02*
X20490929Y-14141357D01*
X20505214Y-14169929D01*
X20533786Y-14184214D01*
X20562357Y-14184214D01*
X20890929Y-13984214D02*
X20890929Y-14284214D01*
X20890929Y-13998500D02*
X20919500Y-13984214D01*
X20976643Y-13984214D01*
X21005214Y-13998500D01*
X21019500Y-14012786D01*
X21033786Y-14041357D01*
X21033786Y-14127071D01*
X21019500Y-14155643D01*
X21005214Y-14169929D01*
X20976643Y-14184214D01*
X20919500Y-14184214D01*
X20890929Y-14169929D01*
X21205214Y-14184214D02*
X21176643Y-14169929D01*
X21162357Y-14141357D01*
X21162357Y-13884214D01*
X21448071Y-14184214D02*
X21448071Y-14027071D01*
X21433786Y-13998500D01*
X21405214Y-13984214D01*
X21348071Y-13984214D01*
X21319500Y-13998500D01*
X21448071Y-14169929D02*
X21419500Y-14184214D01*
X21348071Y-14184214D01*
X21319500Y-14169929D01*
X21305214Y-14141357D01*
X21305214Y-14112786D01*
X21319500Y-14084214D01*
X21348071Y-14069929D01*
X21419500Y-14069929D01*
X21448071Y-14055643D01*
X21548071Y-13984214D02*
X21662357Y-13984214D01*
X21590929Y-13884214D02*
X21590929Y-14141357D01*
X21605214Y-14169929D01*
X21633786Y-14184214D01*
X21662357Y-14184214D01*
X21876643Y-14169929D02*
X21848072Y-14184214D01*
X21790929Y-14184214D01*
X21762357Y-14169929D01*
X21748072Y-14141357D01*
X21748072Y-14027071D01*
X21762357Y-13998500D01*
X21790929Y-13984214D01*
X21848072Y-13984214D01*
X21876643Y-13998500D01*
X21890929Y-14027071D01*
X21890929Y-14055643D01*
X21748072Y-14084214D01*
X22148072Y-14184214D02*
X22148072Y-13884214D01*
X22148072Y-14169929D02*
X22119500Y-14184214D01*
X22062357Y-14184214D01*
X22033786Y-14169929D01*
X22019500Y-14155643D01*
X22005214Y-14127071D01*
X22005214Y-14041357D01*
X22019500Y-14012786D01*
X22033786Y-13998500D01*
X22062357Y-13984214D01*
X22119500Y-13984214D01*
X22148072Y-13998500D01*
X22262357Y-14298500D02*
X22276643Y-14284214D01*
X22305214Y-14241357D01*
X22319500Y-14212786D01*
X22333786Y-14169929D01*
X22348072Y-14098500D01*
X22348072Y-14041357D01*
X22333786Y-13969929D01*
X22319500Y-13927071D01*
X22305214Y-13898500D01*
X22276643Y-13855643D01*
X22262357Y-13841357D01*
M02*
