G04 #@! TF.FileFunction,Legend,Top*
%FSLAX46Y46*%
G04 Gerber Fmt 4.6, Leading zero omitted, Abs format (unit mm)*
G04 Created by KiCad (PCBNEW 4.0.6) date 07/19/17 18:28:19*
%MOMM*%
%LPD*%
G01*
G04 APERTURE LIST*
%ADD10C,0.100000*%
%ADD11C,0.120000*%
%ADD12C,0.150000*%
G04 APERTURE END LIST*
D10*
D11*
X171420000Y-104120000D02*
X161320000Y-104120000D01*
X171420000Y-104160000D02*
X161320000Y-104160000D01*
X171420000Y-104200000D02*
X161320000Y-104200000D01*
X171419000Y-104240000D02*
X161321000Y-104240000D01*
X171418000Y-104280000D02*
X161322000Y-104280000D01*
X171417000Y-104320000D02*
X161323000Y-104320000D01*
X171415000Y-104360000D02*
X161325000Y-104360000D01*
X171413000Y-104400000D02*
X167350000Y-104400000D01*
X165390000Y-104400000D02*
X161327000Y-104400000D01*
X171410000Y-104440000D02*
X167350000Y-104440000D01*
X165390000Y-104440000D02*
X161330000Y-104440000D01*
X171408000Y-104480000D02*
X167350000Y-104480000D01*
X165390000Y-104480000D02*
X161332000Y-104480000D01*
X171405000Y-104520000D02*
X167350000Y-104520000D01*
X165390000Y-104520000D02*
X161335000Y-104520000D01*
X171401000Y-104560000D02*
X167350000Y-104560000D01*
X165390000Y-104560000D02*
X161339000Y-104560000D01*
X171398000Y-104600000D02*
X167350000Y-104600000D01*
X165390000Y-104600000D02*
X161342000Y-104600000D01*
X171394000Y-104640000D02*
X167350000Y-104640000D01*
X165390000Y-104640000D02*
X161346000Y-104640000D01*
X171390000Y-104680000D02*
X167350000Y-104680000D01*
X165390000Y-104680000D02*
X161350000Y-104680000D01*
X171385000Y-104720000D02*
X167350000Y-104720000D01*
X165390000Y-104720000D02*
X161355000Y-104720000D01*
X171380000Y-104760000D02*
X167350000Y-104760000D01*
X165390000Y-104760000D02*
X161360000Y-104760000D01*
X171375000Y-104800000D02*
X167350000Y-104800000D01*
X165390000Y-104800000D02*
X161365000Y-104800000D01*
X171369000Y-104841000D02*
X167350000Y-104841000D01*
X165390000Y-104841000D02*
X161371000Y-104841000D01*
X171363000Y-104881000D02*
X167350000Y-104881000D01*
X165390000Y-104881000D02*
X161377000Y-104881000D01*
X171357000Y-104921000D02*
X167350000Y-104921000D01*
X165390000Y-104921000D02*
X161383000Y-104921000D01*
X171351000Y-104961000D02*
X167350000Y-104961000D01*
X165390000Y-104961000D02*
X161389000Y-104961000D01*
X171344000Y-105001000D02*
X167350000Y-105001000D01*
X165390000Y-105001000D02*
X161396000Y-105001000D01*
X171337000Y-105041000D02*
X167350000Y-105041000D01*
X165390000Y-105041000D02*
X161403000Y-105041000D01*
X171329000Y-105081000D02*
X167350000Y-105081000D01*
X165390000Y-105081000D02*
X161411000Y-105081000D01*
X171321000Y-105121000D02*
X167350000Y-105121000D01*
X165390000Y-105121000D02*
X161419000Y-105121000D01*
X171313000Y-105161000D02*
X167350000Y-105161000D01*
X165390000Y-105161000D02*
X161427000Y-105161000D01*
X171305000Y-105201000D02*
X167350000Y-105201000D01*
X165390000Y-105201000D02*
X161435000Y-105201000D01*
X171296000Y-105241000D02*
X167350000Y-105241000D01*
X165390000Y-105241000D02*
X161444000Y-105241000D01*
X171287000Y-105281000D02*
X167350000Y-105281000D01*
X165390000Y-105281000D02*
X161453000Y-105281000D01*
X171277000Y-105321000D02*
X167350000Y-105321000D01*
X165390000Y-105321000D02*
X161463000Y-105321000D01*
X171267000Y-105361000D02*
X167350000Y-105361000D01*
X165390000Y-105361000D02*
X161473000Y-105361000D01*
X171257000Y-105401000D02*
X167350000Y-105401000D01*
X165390000Y-105401000D02*
X161483000Y-105401000D01*
X171246000Y-105441000D02*
X167350000Y-105441000D01*
X165390000Y-105441000D02*
X161494000Y-105441000D01*
X171235000Y-105481000D02*
X167350000Y-105481000D01*
X165390000Y-105481000D02*
X161505000Y-105481000D01*
X171224000Y-105521000D02*
X167350000Y-105521000D01*
X165390000Y-105521000D02*
X161516000Y-105521000D01*
X171213000Y-105561000D02*
X167350000Y-105561000D01*
X165390000Y-105561000D02*
X161527000Y-105561000D01*
X171201000Y-105601000D02*
X167350000Y-105601000D01*
X165390000Y-105601000D02*
X161539000Y-105601000D01*
X171188000Y-105641000D02*
X167350000Y-105641000D01*
X165390000Y-105641000D02*
X161552000Y-105641000D01*
X171176000Y-105681000D02*
X167350000Y-105681000D01*
X165390000Y-105681000D02*
X161564000Y-105681000D01*
X171162000Y-105721000D02*
X167350000Y-105721000D01*
X165390000Y-105721000D02*
X161578000Y-105721000D01*
X171149000Y-105761000D02*
X167350000Y-105761000D01*
X165390000Y-105761000D02*
X161591000Y-105761000D01*
X171135000Y-105801000D02*
X167350000Y-105801000D01*
X165390000Y-105801000D02*
X161605000Y-105801000D01*
X171121000Y-105841000D02*
X167350000Y-105841000D01*
X165390000Y-105841000D02*
X161619000Y-105841000D01*
X171107000Y-105881000D02*
X167350000Y-105881000D01*
X165390000Y-105881000D02*
X161633000Y-105881000D01*
X171092000Y-105921000D02*
X167350000Y-105921000D01*
X165390000Y-105921000D02*
X161648000Y-105921000D01*
X171076000Y-105961000D02*
X167350000Y-105961000D01*
X165390000Y-105961000D02*
X161664000Y-105961000D01*
X171061000Y-106001000D02*
X167350000Y-106001000D01*
X165390000Y-106001000D02*
X161679000Y-106001000D01*
X171044000Y-106041000D02*
X167350000Y-106041000D01*
X165390000Y-106041000D02*
X161696000Y-106041000D01*
X171028000Y-106081000D02*
X167350000Y-106081000D01*
X165390000Y-106081000D02*
X161712000Y-106081000D01*
X171011000Y-106121000D02*
X167350000Y-106121000D01*
X165390000Y-106121000D02*
X161729000Y-106121000D01*
X170994000Y-106161000D02*
X167350000Y-106161000D01*
X165390000Y-106161000D02*
X161746000Y-106161000D01*
X170976000Y-106201000D02*
X167350000Y-106201000D01*
X165390000Y-106201000D02*
X161764000Y-106201000D01*
X170958000Y-106241000D02*
X167350000Y-106241000D01*
X165390000Y-106241000D02*
X161782000Y-106241000D01*
X170939000Y-106281000D02*
X167350000Y-106281000D01*
X165390000Y-106281000D02*
X161801000Y-106281000D01*
X170920000Y-106321000D02*
X167350000Y-106321000D01*
X165390000Y-106321000D02*
X161820000Y-106321000D01*
X170901000Y-106361000D02*
X161839000Y-106361000D01*
X170881000Y-106401000D02*
X161859000Y-106401000D01*
X170861000Y-106441000D02*
X161879000Y-106441000D01*
X170840000Y-106481000D02*
X161900000Y-106481000D01*
X170819000Y-106521000D02*
X161921000Y-106521000D01*
X170798000Y-106561000D02*
X161942000Y-106561000D01*
X170775000Y-106601000D02*
X161965000Y-106601000D01*
X170753000Y-106641000D02*
X161987000Y-106641000D01*
X170730000Y-106681000D02*
X162010000Y-106681000D01*
X170706000Y-106721000D02*
X162034000Y-106721000D01*
X170682000Y-106761000D02*
X162058000Y-106761000D01*
X170658000Y-106801000D02*
X162082000Y-106801000D01*
X170633000Y-106841000D02*
X162107000Y-106841000D01*
X170607000Y-106881000D02*
X162133000Y-106881000D01*
X170581000Y-106921000D02*
X162159000Y-106921000D01*
X170555000Y-106961000D02*
X162185000Y-106961000D01*
X170527000Y-107001000D02*
X162213000Y-107001000D01*
X170500000Y-107041000D02*
X162240000Y-107041000D01*
X170471000Y-107081000D02*
X162269000Y-107081000D01*
X170442000Y-107121000D02*
X162298000Y-107121000D01*
X170413000Y-107161000D02*
X162327000Y-107161000D01*
X170383000Y-107201000D02*
X162357000Y-107201000D01*
X170352000Y-107241000D02*
X162388000Y-107241000D01*
X170321000Y-107281000D02*
X162419000Y-107281000D01*
X170289000Y-107321000D02*
X162451000Y-107321000D01*
X170256000Y-107361000D02*
X162484000Y-107361000D01*
X170223000Y-107401000D02*
X162517000Y-107401000D01*
X170189000Y-107441000D02*
X162551000Y-107441000D01*
X170154000Y-107481000D02*
X162586000Y-107481000D01*
X170118000Y-107521000D02*
X162622000Y-107521000D01*
X170082000Y-107561000D02*
X162658000Y-107561000D01*
X170045000Y-107601000D02*
X162695000Y-107601000D01*
X170007000Y-107641000D02*
X162733000Y-107641000D01*
X169968000Y-107681000D02*
X162772000Y-107681000D01*
X169929000Y-107721000D02*
X162811000Y-107721000D01*
X169888000Y-107761000D02*
X162852000Y-107761000D01*
X169847000Y-107801000D02*
X162893000Y-107801000D01*
X169805000Y-107841000D02*
X162935000Y-107841000D01*
X169761000Y-107881000D02*
X162979000Y-107881000D01*
X169717000Y-107921000D02*
X163023000Y-107921000D01*
X169672000Y-107961000D02*
X163068000Y-107961000D01*
X169625000Y-108001000D02*
X163115000Y-108001000D01*
X169577000Y-108041000D02*
X163163000Y-108041000D01*
X169528000Y-108081000D02*
X163212000Y-108081000D01*
X169478000Y-108121000D02*
X163262000Y-108121000D01*
X169427000Y-108161000D02*
X163313000Y-108161000D01*
X169374000Y-108201000D02*
X163366000Y-108201000D01*
X169319000Y-108241000D02*
X163421000Y-108241000D01*
X169264000Y-108281000D02*
X163476000Y-108281000D01*
X169206000Y-108321000D02*
X163534000Y-108321000D01*
X169147000Y-108361000D02*
X163593000Y-108361000D01*
X169085000Y-108401000D02*
X163655000Y-108401000D01*
X169022000Y-108441000D02*
X163718000Y-108441000D01*
X168957000Y-108481000D02*
X163783000Y-108481000D01*
X168889000Y-108521000D02*
X163851000Y-108521000D01*
X168819000Y-108561000D02*
X163921000Y-108561000D01*
X168747000Y-108601000D02*
X163993000Y-108601000D01*
X168671000Y-108641000D02*
X164069000Y-108641000D01*
X168592000Y-108681000D02*
X164148000Y-108681000D01*
X168510000Y-108721000D02*
X164230000Y-108721000D01*
X168423000Y-108761000D02*
X164317000Y-108761000D01*
X168332000Y-108801000D02*
X164408000Y-108801000D01*
X168236000Y-108841000D02*
X164504000Y-108841000D01*
X168133000Y-108881000D02*
X164607000Y-108881000D01*
X168024000Y-108921000D02*
X164716000Y-108921000D01*
X167906000Y-108961000D02*
X164834000Y-108961000D01*
X167777000Y-109001000D02*
X164963000Y-109001000D01*
X167635000Y-109041000D02*
X165105000Y-109041000D01*
X167474000Y-109081000D02*
X165266000Y-109081000D01*
X167283000Y-109121000D02*
X165457000Y-109121000D01*
X167042000Y-109161000D02*
X165698000Y-109161000D01*
X166649000Y-109201000D02*
X166091000Y-109201000D01*
X166370000Y-100670000D02*
X166370000Y-101870000D01*
X167020000Y-101270000D02*
X165720000Y-101270000D01*
X171460000Y-104120000D02*
G75*
G03X171460000Y-104120000I-5090000J0D01*
G01*
X134530000Y-106120000D02*
X134530000Y-102200000D01*
X137250000Y-106120000D02*
X137250000Y-102200000D01*
X134530000Y-106120000D02*
X135140000Y-106120000D01*
X136640000Y-106120000D02*
X137250000Y-106120000D01*
X134530000Y-102200000D02*
X135140000Y-102200000D01*
X136640000Y-102200000D02*
X137250000Y-102200000D01*
X142140000Y-116360000D02*
X142140000Y-122360000D01*
X142140000Y-122360000D02*
X157580000Y-122360000D01*
X157580000Y-122360000D02*
X157580000Y-116360000D01*
X157580000Y-116360000D02*
X142140000Y-116360000D01*
X143510000Y-122360000D02*
X143510000Y-121360000D01*
X143510000Y-121360000D02*
X156210000Y-121360000D01*
X156210000Y-121360000D02*
X156210000Y-122360000D01*
X143510000Y-121360000D02*
X143760000Y-120930000D01*
X143760000Y-120930000D02*
X155960000Y-120930000D01*
X155960000Y-120930000D02*
X156210000Y-121360000D01*
X143760000Y-122360000D02*
X143760000Y-121360000D01*
X155960000Y-122360000D02*
X155960000Y-121360000D01*
X142710000Y-116360000D02*
X142710000Y-116980000D01*
X142710000Y-116980000D02*
X144310000Y-116980000D01*
X144310000Y-116980000D02*
X144310000Y-116360000D01*
X145250000Y-116360000D02*
X145250000Y-116980000D01*
X145250000Y-116980000D02*
X146850000Y-116980000D01*
X146850000Y-116980000D02*
X146850000Y-116360000D01*
X147790000Y-116360000D02*
X147790000Y-116980000D01*
X147790000Y-116980000D02*
X149390000Y-116980000D01*
X149390000Y-116980000D02*
X149390000Y-116360000D01*
X150330000Y-116360000D02*
X150330000Y-116980000D01*
X150330000Y-116980000D02*
X151930000Y-116980000D01*
X151930000Y-116980000D02*
X151930000Y-116360000D01*
X152870000Y-116360000D02*
X152870000Y-116980000D01*
X152870000Y-116980000D02*
X154470000Y-116980000D01*
X154470000Y-116980000D02*
X154470000Y-116360000D01*
X155410000Y-116360000D02*
X155410000Y-116980000D01*
X155410000Y-116980000D02*
X157010000Y-116980000D01*
X157010000Y-116980000D02*
X157010000Y-116360000D01*
D12*
X156491000Y-92040000D02*
G75*
G03X157091000Y-91440000I0J600000D01*
G01*
X156491000Y-90840000D02*
G75*
G02X157091000Y-91440000I0J-600000D01*
G01*
X143991000Y-90840000D02*
G75*
G03X143391000Y-91440000I0J-600000D01*
G01*
X143991000Y-92040000D02*
G75*
G02X143391000Y-91440000I0J600000D01*
G01*
X172787143Y-104286666D02*
X172834762Y-104334285D01*
X172882381Y-104477142D01*
X172882381Y-104572380D01*
X172834762Y-104715238D01*
X172739524Y-104810476D01*
X172644286Y-104858095D01*
X172453810Y-104905714D01*
X172310952Y-104905714D01*
X172120476Y-104858095D01*
X172025238Y-104810476D01*
X171930000Y-104715238D01*
X171882381Y-104572380D01*
X171882381Y-104477142D01*
X171930000Y-104334285D01*
X171977619Y-104286666D01*
X172882381Y-103334285D02*
X172882381Y-103905714D01*
X172882381Y-103620000D02*
X171882381Y-103620000D01*
X172025238Y-103715238D01*
X172120476Y-103810476D01*
X172168095Y-103905714D01*
X133887143Y-104326666D02*
X133934762Y-104374285D01*
X133982381Y-104517142D01*
X133982381Y-104612380D01*
X133934762Y-104755238D01*
X133839524Y-104850476D01*
X133744286Y-104898095D01*
X133553810Y-104945714D01*
X133410952Y-104945714D01*
X133220476Y-104898095D01*
X133125238Y-104850476D01*
X133030000Y-104755238D01*
X132982381Y-104612380D01*
X132982381Y-104517142D01*
X133030000Y-104374285D01*
X133077619Y-104326666D01*
X133077619Y-103945714D02*
X133030000Y-103898095D01*
X132982381Y-103802857D01*
X132982381Y-103564761D01*
X133030000Y-103469523D01*
X133077619Y-103421904D01*
X133172857Y-103374285D01*
X133268095Y-103374285D01*
X133410952Y-103421904D01*
X133982381Y-103993333D01*
X133982381Y-103374285D01*
X144176667Y-114332381D02*
X144176667Y-115046667D01*
X144129047Y-115189524D01*
X144033809Y-115284762D01*
X143890952Y-115332381D01*
X143795714Y-115332381D01*
X145176667Y-115332381D02*
X144605238Y-115332381D01*
X144890952Y-115332381D02*
X144890952Y-114332381D01*
X144795714Y-114475238D01*
X144700476Y-114570476D01*
X144605238Y-114618095D01*
M02*
